<mxfile host="app.diagrams.net" agent="Mozilla/5.0 (Windows NT 10.0; Win64; x64) AppleWebKit/537.36 (KHTML, like Gecko) Chrome/132.0.0.0 Safari/537.36" version="26.0.11">
  <diagram name="Page-1" id="2YBvvXClWsGukQMizWep">
    <mxGraphModel grid="1" page="1" gridSize="10" guides="1" tooltips="1" connect="1" arrows="1" fold="1" pageScale="1" pageWidth="850" pageHeight="1100" math="0" shadow="0">
      <root>
        <mxCell id="0" />
        <mxCell id="1" parent="0" />
        <mxCell id="aM9ryv3xv72pqoxQDRHE-1" value="r:Interfaccia Registrazione" style="shape=umlLifeline;perimeter=lifelinePerimeter;whiteSpace=wrap;html=1;container=0;dropTarget=0;collapsible=0;recursiveResize=0;outlineConnect=0;portConstraint=eastwest;newEdgeStyle={&quot;edgeStyle&quot;:&quot;elbowEdgeStyle&quot;,&quot;elbow&quot;:&quot;vertical&quot;,&quot;curved&quot;:0,&quot;rounded&quot;:0};" vertex="1" parent="1">
          <mxGeometry x="380" y="360" width="100" height="170" as="geometry" />
        </mxCell>
        <mxCell id="aM9ryv3xv72pqoxQDRHE-2" value="" style="html=1;points=[];perimeter=orthogonalPerimeter;outlineConnect=0;targetShapes=umlLifeline;portConstraint=eastwest;newEdgeStyle={&quot;edgeStyle&quot;:&quot;elbowEdgeStyle&quot;,&quot;elbow&quot;:&quot;vertical&quot;,&quot;curved&quot;:0,&quot;rounded&quot;:0};" vertex="1" parent="aM9ryv3xv72pqoxQDRHE-1">
          <mxGeometry x="45" y="70" width="10" height="80" as="geometry" />
        </mxCell>
        <mxCell id="2pP-23RefEe6wGgIDqWj-30" value="" style="endArrow=classic;html=1;rounded=0;" edge="1" parent="aM9ryv3xv72pqoxQDRHE-1" source="aM9ryv3xv72pqoxQDRHE-2" target="aM9ryv3xv72pqoxQDRHE-2">
          <mxGeometry width="50" height="50" relative="1" as="geometry">
            <mxPoint x="50.023809523809405" y="90.00000000000011" as="sourcePoint" />
            <mxPoint x="60" y="110" as="targetPoint" />
            <Array as="points">
              <mxPoint x="80" y="100" />
              <mxPoint x="80" y="110" />
            </Array>
          </mxGeometry>
        </mxCell>
        <mxCell id="2pP-23RefEe6wGgIDqWj-32" value="insertDatiCliente()" style="edgeLabel;html=1;align=center;verticalAlign=middle;resizable=0;points=[];" connectable="0" vertex="1" parent="2pP-23RefEe6wGgIDqWj-30">
          <mxGeometry x="-0.023" y="-1" relative="1" as="geometry">
            <mxPoint x="51" as="offset" />
          </mxGeometry>
        </mxCell>
        <mxCell id="aM9ryv3xv72pqoxQDRHE-5" value="t:Totem" style="shape=umlLifeline;perimeter=lifelinePerimeter;whiteSpace=wrap;html=1;container=0;dropTarget=0;collapsible=0;recursiveResize=0;outlineConnect=0;portConstraint=eastwest;newEdgeStyle={&quot;edgeStyle&quot;:&quot;elbowEdgeStyle&quot;,&quot;elbow&quot;:&quot;vertical&quot;,&quot;curved&quot;:0,&quot;rounded&quot;:0};" vertex="1" parent="1">
          <mxGeometry x="680" y="360" width="100" height="270" as="geometry" />
        </mxCell>
        <mxCell id="aM9ryv3xv72pqoxQDRHE-6" value="" style="html=1;points=[];perimeter=orthogonalPerimeter;outlineConnect=0;targetShapes=umlLifeline;portConstraint=eastwest;newEdgeStyle={&quot;edgeStyle&quot;:&quot;elbowEdgeStyle&quot;,&quot;elbow&quot;:&quot;vertical&quot;,&quot;curved&quot;:0,&quot;rounded&quot;:0};" vertex="1" parent="aM9ryv3xv72pqoxQDRHE-5">
          <mxGeometry x="45" y="130" width="10" height="120" as="geometry" />
        </mxCell>
        <mxCell id="aM9ryv3xv72pqoxQDRHE-7" value="registrazioneCliente()" style="html=1;verticalAlign=bottom;endArrow=block;edgeStyle=elbowEdgeStyle;elbow=vertical;curved=0;rounded=0;" edge="1" parent="1" source="aM9ryv3xv72pqoxQDRHE-2" target="aM9ryv3xv72pqoxQDRHE-6">
          <mxGeometry relative="1" as="geometry">
            <mxPoint x="570" y="440" as="sourcePoint" />
            <Array as="points">
              <mxPoint x="680" y="500" />
              <mxPoint x="720" y="530" />
              <mxPoint x="640" y="440" />
            </Array>
          </mxGeometry>
        </mxCell>
        <mxCell id="aM9ryv3xv72pqoxQDRHE-8" value="return interfaccia Deposito/Ritiro Capi" style="html=1;verticalAlign=bottom;endArrow=open;dashed=1;endSize=8;edgeStyle=elbowEdgeStyle;elbow=vertical;curved=0;rounded=0;" edge="1" parent="1" source="aM9ryv3xv72pqoxQDRHE-6" target="2pP-23RefEe6wGgIDqWj-17">
          <mxGeometry relative="1" as="geometry">
            <mxPoint x="655" y="525" as="targetPoint" />
            <Array as="points">
              <mxPoint x="650" y="600" />
            </Array>
          </mxGeometry>
        </mxCell>
        <mxCell id="2pP-23RefEe6wGgIDqWj-1" value="Registrazione" style="shape=umlFrame;whiteSpace=wrap;html=1;pointerEvents=0;recursiveResize=0;container=0;collapsible=0;width=160;" vertex="1" parent="1">
          <mxGeometry x="160" y="240" width="1130" height="410" as="geometry" />
        </mxCell>
        <mxCell id="2pP-23RefEe6wGgIDqWj-15" value="Cliente" style="shape=umlActor;verticalLabelPosition=bottom;verticalAlign=top;html=1;outlineConnect=0;" vertex="1" parent="1">
          <mxGeometry x="230" y="320" width="30" height="60" as="geometry" />
        </mxCell>
        <mxCell id="2pP-23RefEe6wGgIDqWj-16" value="" style="endArrow=none;dashed=1;html=1;rounded=0;" edge="1" parent="1" source="2pP-23RefEe6wGgIDqWj-17">
          <mxGeometry width="50" height="50" relative="1" as="geometry">
            <mxPoint x="244.72" y="660" as="sourcePoint" />
            <mxPoint x="245" y="400" as="targetPoint" />
          </mxGeometry>
        </mxCell>
        <mxCell id="2pP-23RefEe6wGgIDqWj-19" value="" style="endArrow=none;dashed=1;html=1;rounded=0;" edge="1" parent="1" target="2pP-23RefEe6wGgIDqWj-17">
          <mxGeometry width="50" height="50" relative="1" as="geometry">
            <mxPoint x="245" y="640" as="sourcePoint" />
            <mxPoint x="244.72" y="410" as="targetPoint" />
          </mxGeometry>
        </mxCell>
        <mxCell id="2pP-23RefEe6wGgIDqWj-17" value="" style="html=1;points=[];perimeter=orthogonalPerimeter;outlineConnect=0;targetShapes=umlLifeline;portConstraint=eastwest;newEdgeStyle={&quot;edgeStyle&quot;:&quot;elbowEdgeStyle&quot;,&quot;elbow&quot;:&quot;vertical&quot;,&quot;curved&quot;:0,&quot;rounded&quot;:0};" vertex="1" parent="1">
          <mxGeometry x="240" y="430" width="10" height="190" as="geometry" />
        </mxCell>
        <mxCell id="2pP-23RefEe6wGgIDqWj-21" value="registrazione()" style="html=1;verticalAlign=bottom;endArrow=block;edgeStyle=elbowEdgeStyle;elbow=vertical;curved=0;rounded=0;" edge="1" parent="1">
          <mxGeometry x="-0.0035" relative="1" as="geometry">
            <mxPoint x="250" y="450" as="sourcePoint" />
            <Array as="points">
              <mxPoint x="335" y="450" />
            </Array>
            <mxPoint x="420" y="450" as="targetPoint" />
            <mxPoint as="offset" />
          </mxGeometry>
        </mxCell>
        <mxCell id="2pP-23RefEe6wGgIDqWj-35" value="insertCliente()" style="html=1;verticalAlign=bottom;endArrow=block;edgeStyle=elbowEdgeStyle;elbow=vertical;curved=0;rounded=0;" edge="1" parent="1" source="aM9ryv3xv72pqoxQDRHE-6" target="2pP-23RefEe6wGgIDqWj-41">
          <mxGeometry x="-0.0016" relative="1" as="geometry">
            <mxPoint x="740" y="525" as="sourcePoint" />
            <Array as="points">
              <mxPoint x="930" y="520" />
              <mxPoint x="1015" y="554.5799999999999" />
              <mxPoint x="935" y="464.58000000000004" />
            </Array>
            <mxPoint x="940" y="520" as="targetPoint" />
            <mxPoint as="offset" />
          </mxGeometry>
        </mxCell>
        <mxCell id="2pP-23RefEe6wGgIDqWj-39" value="CONTROLLER" style="text;html=1;align=center;verticalAlign=middle;resizable=0;points=[];autosize=1;strokeColor=none;fillColor=none;" vertex="1" parent="1">
          <mxGeometry x="675" y="320" width="110" height="30" as="geometry" />
        </mxCell>
        <mxCell id="2pP-23RefEe6wGgIDqWj-33" value="DB" style="shape=umlLifeline;perimeter=lifelinePerimeter;whiteSpace=wrap;html=1;container=0;dropTarget=0;collapsible=0;recursiveResize=0;outlineConnect=0;portConstraint=eastwest;newEdgeStyle={&quot;edgeStyle&quot;:&quot;elbowEdgeStyle&quot;,&quot;elbow&quot;:&quot;vertical&quot;,&quot;curved&quot;:0,&quot;rounded&quot;:0};" vertex="1" parent="1">
          <mxGeometry x="1120" y="360" width="100" height="210" as="geometry" />
        </mxCell>
        <mxCell id="2pP-23RefEe6wGgIDqWj-34" value="" style="html=1;points=[];perimeter=orthogonalPerimeter;outlineConnect=0;targetShapes=umlLifeline;portConstraint=eastwest;newEdgeStyle={&quot;edgeStyle&quot;:&quot;elbowEdgeStyle&quot;,&quot;elbow&quot;:&quot;vertical&quot;,&quot;curved&quot;:0,&quot;rounded&quot;:0};" vertex="1" parent="2pP-23RefEe6wGgIDqWj-33">
          <mxGeometry x="45" y="160" width="10" height="40" as="geometry" />
        </mxCell>
        <mxCell id="2pP-23RefEe6wGgIDqWj-40" value="ClienteDAO" style="shape=umlLifeline;perimeter=lifelinePerimeter;whiteSpace=wrap;html=1;container=0;dropTarget=0;collapsible=0;recursiveResize=0;outlineConnect=0;portConstraint=eastwest;newEdgeStyle={&quot;edgeStyle&quot;:&quot;elbowEdgeStyle&quot;,&quot;elbow&quot;:&quot;vertical&quot;,&quot;curved&quot;:0,&quot;rounded&quot;:0};" vertex="1" parent="1">
          <mxGeometry x="900" y="360" width="100" height="210" as="geometry" />
        </mxCell>
        <mxCell id="2pP-23RefEe6wGgIDqWj-41" value="" style="html=1;points=[];perimeter=orthogonalPerimeter;outlineConnect=0;targetShapes=umlLifeline;portConstraint=eastwest;newEdgeStyle={&quot;edgeStyle&quot;:&quot;elbowEdgeStyle&quot;,&quot;elbow&quot;:&quot;vertical&quot;,&quot;curved&quot;:0,&quot;rounded&quot;:0};" vertex="1" parent="2pP-23RefEe6wGgIDqWj-40">
          <mxGeometry x="45" y="150" width="10" height="50" as="geometry" />
        </mxCell>
        <mxCell id="2pP-23RefEe6wGgIDqWj-42" style="edgeStyle=elbowEdgeStyle;rounded=0;orthogonalLoop=1;jettySize=auto;html=1;elbow=vertical;curved=0;" edge="1" parent="1" source="2pP-23RefEe6wGgIDqWj-41" target="2pP-23RefEe6wGgIDqWj-34">
          <mxGeometry relative="1" as="geometry">
            <mxPoint x="1160" y="540" as="targetPoint" />
          </mxGeometry>
        </mxCell>
        <mxCell id="2pP-23RefEe6wGgIDqWj-43" value="executeQuery()" style="text;html=1;align=center;verticalAlign=middle;resizable=0;points=[];autosize=1;strokeColor=none;fillColor=none;" vertex="1" parent="1">
          <mxGeometry x="1000" y="510" width="110" height="30" as="geometry" />
        </mxCell>
      </root>
    </mxGraphModel>
  </diagram>
</mxfile>
